<?xml version="1.0" encoding="UTF-8"?>
<svg xmlns="http://www.w3.org/2000/svg" xmlns:xlink="http://www.w3.org/1999/xlink" width="210mm" height="297mm">
  <defs>
    <linearGradient id="b">
      <stop offset="0" stop-color="#fff"/>
      <stop offset="1" stop-color="#fff" stop-opacity="0"/>
    </linearGradient>
    <linearGradient id="e" x1="49.136964" x2="747.09593" y1="467.2588" y2="467.2588" gradientTransform="scale(.90134 1.10946)" gradientUnits="userSpaceOnUse">
      <stop offset="0" stop-color="#729fcf"/>
      <stop offset="1" stop-color="#204a87"/>
    </linearGradient>
    <linearGradient id="a">
      <stop offset="0" stop-color="#fff"/>
      <stop offset="1" stop-color="#729fcf"/>
    </linearGradient>
    <linearGradient id="f">
      <stop offset="0"/>
      <stop offset="1" stop-opacity="0"/>
    </linearGradient>
    <linearGradient id="c">
      <stop offset="0" stop-color="#3977c3"/>
      <stop offset="1" stop-color="#89aedc" stop-opacity="0"/>
    </linearGradient>
    <linearGradient id="d">
      <stop offset="0" stop-color="#729fcf"/>
      <stop offset=".31578946" stop-color="#babdb6"/>
      <stop offset="1" stop-color="#3465a4"/>
    </linearGradient>
    <linearGradient xlink:href="#a" id="k" x1="24" x2="24" y1="16.525082" y2="13.284962" gradientUnits="userSpaceOnUse"/>
    <linearGradient xlink:href="#b" id="l" x1="16.07143" x2="15.785715" y1="19.5" y2="30" gradientTransform="translate(-152.46168 8.8865747) scale(21.1429)" gradientUnits="userSpaceOnUse"/>
    <linearGradient xlink:href="#c" id="j" x1="17.160095" x2="37.969398" y1="14.004482" y2="56.575912" gradientTransform="translate(-149.44117 -46.991167) scale(21.1429)" gradientUnits="userSpaceOnUse"/>
    <linearGradient xlink:href="#d" id="h" x1="9.3030529" x2="38.826412" y1="26.71875" y2="26.71875" gradientTransform="translate(-149.44117 -46.991167) scale(21.1429)" gradientUnits="userSpaceOnUse"/>
    <linearGradient xlink:href="#e" id="i" x1="49.136964" x2="747.09593" y1="467.2588" y2="467.2588" gradientTransform="matrix(.90134 0 0 1.10946 .52026458 -.48501452)" gradientUnits="userSpaceOnUse"/>
    <radialGradient xlink:href="#f" id="g" cx="23.857143" cy="40" r="17.142857" fx="23.857143" fy="40" gradientTransform="matrix(1 0 0 .5 0 20)" gradientUnits="userSpaceOnUse"/>
  </defs>
  <path fill="url(#g)" d="M41 40a17.142857 8.5714283 0 1 1-34.2857132 0A17.142857 8.5714283 0 1 1 41 40z" display="block" overflow="visible" style="marker:none" transform="matrix(22.3851 0 0 24.34096 -173.03587 -228.02997)"/>
  <path fill="url(#h)" stroke="url(#i)" stroke-miterlimit="10" stroke-width="21.14290619" d="M356.66648 141.31284c-166.17052 0-301.285983 59.253-301.285983 132.14314v488.92965c0 72.89018 135.115463 132.14315 301.285983 132.14315 166.17053 0 306.66725-59.25297 306.66725-132.14315V273.45598c0-72.89014-140.49672-132.14314-306.66725-132.14314z" display="block" overflow="visible" style="marker:none"/>
  <path fill="none" stroke="url(#j)" stroke-miterlimit="10" stroke-width="21.14290619" d="M356.84833 157.78994c-154.92885 0-280.904411 55.24468-280.904411 123.20413v467.81359c0 67.95922 125.975561 123.20393 280.904411 123.20393 154.93094 0 285.92181-55.24471 285.92181-123.20393V280.99407c0-67.95945-130.99087-123.20413-285.92181-123.20413z" display="block" opacity=".5443038" overflow="visible" style="marker:none"/>
  <path fill="#3465a4" stroke="url(#k)" stroke-miterlimit="10" stroke-width="1.00492704" d="M36.857142 14.071428a12.857142 5.5 0 1 1-25.714284 0 12.857142 5.5 0 1 1 25.714284 0z" display="block" overflow="visible" style="marker:none" transform="matrix(21.93135 0 0 20.18342 -168.36368 -12.347239)"/>
  <path fill="url(#l)" d="m139.00874 369.82596 7.5501 354.89887 96.65272 27.18366-3.0192-353.38841s43.7954 0 114.77637-4.53074c-110.27718-4.92776-236.44943-52.3219-279.389384-83.06136 29.958254 44.23476 63.429394 58.89798 63.429394 58.89798z" display="block" opacity=".49367083" overflow="visible" style="marker:none"/>
  <path fill="#204a87" d="M114.15586 701.5918h16.09033v-63.74234l25.1253 55.573c2.84764 6.6832 6.93184 9.15937 14.8527 9.15937 7.92167 0 11.7583-2.47543 14.72914-9.15866l25.00197-55.57371v63.74234h16.21373v-63.74234c0-6.18856-2.47543-9.15937-7.67397-10.7683-12.25289-3.71313-20.42233-.4946-24.13546 7.79743l-24.63007 54.95407-23.7643-54.95407c-3.58957-8.29206-11.88261-11.51056-24.25961-7.79743-5.07443 1.6089-7.54976 4.5797-7.54976 10.7683v63.74234zm125.38108-51.86037h16.21373v35.0272c-.12343 1.98003.61887 6.43708 9.40633 6.56054 4.5797.12276 34.90377 0 35.15144 0v-41.83541h16.21454v57.30688c0 14.1095-17.45224 17.20454-25.62087 17.328h-50.99404v-10.7683h51.1175c10.39707-1.11347 9.15937-6.31203 9.15937-8.0452v-4.20854h-34.28487c-15.96684-.12343-26.2397-7.1786-26.3632-15.22377 0-.7431.37113-35.89373 0-36.14147l.00007.00007zm347.79917-40.59788c-9.90174-.24686-17.57571.74388-24.01204 3.46624-1.85657.7423-4.8274.74307-5.07511 3.09427.99081.9908 1.11427 2.59967 1.98084 3.96087 1.48621 2.47462 4.0843 5.8174 6.43627 7.5505 2.5989 1.98003 5.19857 3.96006 7.92093 5.6932 4.8274 2.97084 10.27364 4.70313 14.97681 7.67397 2.72394 1.73152 5.44549 3.96083 8.16863 5.8174 1.36197.98926 2.22773 2.5989 3.96083 3.21776v-.37116c-.86653-1.11424-1.11423-2.72314-1.98003-3.96084-1.23692-1.23773-2.4754-2.35197-3.71313-3.5897-3.58967-4.82663-8.04517-9.03513-12.87251-12.5006-3.96006-2.72313-12.62483-6.43627-14.23376-11.01597.00077 0-.12411-.12343-.24754-.24686 2.72314-.24787 5.94087-1.2377 8.54057-1.9808 4.20854-1.11427 8.04517-.86657 12.37714-1.98003 1.98003-.49541 3.96083-1.11427 5.94086-1.73314v-1.11346c-2.22692-2.22851-3.83659-5.19854-6.18856-7.30284-6.31203-5.44704-13.24374-10.76827-20.42234-15.22377-3.83737-2.47543-8.78824-4.0851-12.8725-6.1886-1.48463-.74387-3.96087-1.11423-4.82663-2.35197-2.22851-2.7231-3.46624-6.31203-5.07511-9.53056-3.58812-6.80821-7.05513-14.3572-10.1494-21.5358-2.22692-4.82741-3.58889-9.65484-6.31203-14.11024-12.74826-21.04113-26.6109-33.7895-47.89974-46.29087-4.5797-2.5989-10.02516-3.71314-15.8426-5.07433-3.09349-.12411-6.18856-.37114-9.28286-.49537-1.98004-.86657-3.96087-3.21777-5.69398-4.33204-7.05355-4.45623-25.24893-14.10949-30.4475-1.36116-3.34196 8.04517 4.95087 15.96606 7.79744 20.05114 2.10504 2.84659 4.8274 6.06433 6.3128 9.2829.86657 2.10268 1.1135 4.332 1.98003 6.55973 1.98084 5.44469 3.83663 11.51057 6.4363 16.5857 1.36194 2.5989 2.84657 5.32204 4.57971 7.6732.98999 1.36116 2.72232 1.9808 3.09426 4.20853-1.73233 2.47544-1.85656 6.18861-2.84737 9.28291-4.45546 13.98599-2.72233 31.31406 3.5897 41.5869 1.98003 3.09352 6.68394 9.9025 12.99604 7.30287 5.5697-2.22777 4.332-9.28291 5.94086-15.47151.37194-1.48617.12411-2.4754.86657-3.46543.00078.12343 0 .24787 0 .24787 1.7331 3.46543 3.46543 6.80747 5.0743 10.27283 3.8374 6.06437 10.52063 12.37717 16.0903 16.58574 2.97161 2.22696 5.32281 6.06436 9.03594 7.4263v-.37194h-.24787c-.7431-1.11427-1.85657-1.60886-2.8466-2.47543-2.22773-2.22773-4.70394-4.95087-6.43627-7.42627-5.19776-6.9317-9.77827-14.6049-13.86253-22.52657-1.98003-3.83659-3.71317-8.04516-5.32204-11.88176-.7431-1.48621-.7431-3.71314-1.9808-4.45547-1.85657 2.72237-4.57893 5.07434-5.9409 8.41634-2.35039 5.322-2.59886 11.88176-3.46543 18.68913-.49463.1241-.24787 0-.4954.24787-3.96006-.99081-5.32204-5.07433-6.80747-8.54057-3.71313-8.78743-4.332-22.89774-1.11346-33.04637.86656-2.59967 4.5797-10.7683 3.09426-13.24373-.74229-2.35197-3.2185-3.71314-4.5797-5.5697-1.60886-2.35197-3.34197-5.32203-4.45543-7.92167-2.97084-6.9309-4.45627-14.6049-7.674-21.53661-1.4854-3.2185-4.0843-6.55973-6.18857-9.52976-2.35119-3.342-4.95087-5.69397-6.80747-9.65484-.61806-1.36116-1.4854-3.58889-.4954-5.07433.24787-.99.74233-1.36116 1.7331-1.60886 1.6089-1.36194 6.18861.37116 7.79744 1.11349 4.5797 1.85576 8.41633 3.58967 12.2537 6.18857 1.73233 1.2377 3.5889 3.5897 5.81663 4.20853h2.59967c3.96087.8658 8.41633.24754 12.12947 1.3612 6.5605 2.10346 12.50059 5.19854 17.82343 8.54054 16.21454 10.27287 29.5809 24.87854 38.61691 42.33004 1.48543 2.84582 2.10349 5.44627 3.46546 8.41633 2.59967 6.0651 5.81741 12.2537 8.4163 18.19457 2.5989 5.81663 5.07433 11.75833 8.78747 16.58574 1.85734 2.59812 9.28286 3.96006 12.62483 5.32203 2.4754 1.11346 6.31281 2.10427 8.54054 3.46543 4.20776 2.59809 8.4163 5.56974 12.37713 8.4163 1.98084 1.48466 8.16863 4.57974 8.54057 7.05436h.00004z"/>
  <path fill="#00546b" d="M461.08775 501.57571c-2.10427 0-3.58889.24854-5.07429.61964v.24787h.24786c.99081 1.98003 2.72233 3.342 3.96007 5.0743.9908 1.98003 1.85656 3.96086 2.84737 5.94167.12343-.12411.24686-.24787.24686-.24787 1.73391-1.23851 2.59967-3.21854 2.59967-6.18857-.7431-.86657-.86657-1.7331-1.4854-2.59967-.74233-1.23851-2.35197-1.85657-3.342-2.84737z"/>
  <path fill="#f57900" d="M328.90008 701.5918h46.53854c5.4455 0 10.64406-1.11346 14.85179-3.0943 7.05595-3.21773 10.39711-7.54973 10.39711-13.2437v-11.88257c0-4.57893-3.83741-8.9109-11.51057-11.88177-3.96006-1.48463-8.9117-2.35119-13.7391-2.35119h-19.55496c-6.56051 0-9.65481-1.98081-10.52134-6.31281-.12411-.49463-.12411-.99003-.12411-1.48463v-7.30287c0-.37113 0-.86653.12411-1.36116.86656-3.34197 2.59889-4.20854 8.29286-4.8274h47.65281v-10.76831h-45.30164c-6.55974 0-10.02517.37117-13.1195 1.36197-9.53057 2.96926-13.73911 7.67317-13.73911 15.96603v9.40714c0 7.30203 8.16944 13.49063 22.03198 14.97603 1.48543.12343 3.0943.12343 4.70316.12343h16.70917c.61887 0 1.23773 0 1.73314.12411 5.07429.49459 7.30203 1.36116 8.78743 3.21773.99003.98922 1.23773 1.85656 1.23773 2.97083l.00078 9.40556c0 1.11424-.74311 2.60045-2.22851 3.83815-1.48466 1.23773-3.8374 2.1043-6.93174 2.22773-.61806 0-.99.12343-1.60886.12343l-44.68124-.00077v10.76907l.00007.00007zm172.53802-18.68916c0 11.01438 8.29287 17.20376 24.87773 18.44146 1.60886.1241 3.09426.24787 4.70316.24787h42.08389v-10.76908h-42.45431c-9.40633 0-12.99674-2.35042-12.99674-8.04439l.00077-55.69721h-16.21454v55.82148l.00004.00003zm-90.47782.49442v-38.36913c0-9.77747 6.9309-15.71914 20.42234-17.57567 1.48621-.1241 2.97083-.24686 4.332-.24686l30.69517-.00078c1.61044 0 2.97083.12411 4.5797.24754 13.4914 1.85576 20.29887 7.7982 20.29887 17.57567l.00081 38.36913c0 7.92097-2.84741 12.13028-9.53141 14.97684l15.8434 14.3572H478.912l-12.87251-11.6348-12.99603.74229h-17.32881c-2.84582 0-6.06514-.37036-9.40633-1.23692-10.27367-2.8466-15.34797-8.29287-15.34797-17.20457l-.00007-.00004zm17.45147-.86653c0 .49459.24753.9908.37194 1.60967.86576 4.45543 5.07429 6.9309 11.51056 6.9309h14.60487l-13.36717-12.13027h18.68997l11.75753 10.64487c2.22931-1.23851 3.58967-2.97007 4.08507-5.1978.12343-.49537.12343-1.11423.12343-1.60964v-36.7603c0-.49463 0-.99003-.12343-1.48463-.86653-4.20857-5.0751-6.56054-11.3871-6.56054h-24.38317c-7.1786 0-11.88257 3.0943-11.88257 8.04517v36.51264l.00007-.00007zm152.11655 19.18436h2.35197v-9.03513h3.0943v-1.85734h-8.6648v1.85734h3.21853v9.03513zm17.94771 0h2.22693v-10.8925h-3.3412l-2.72394 7.42627-2.96925-7.42627h-3.21851v10.8925h2.10427v-8.29286h.12343l3.09427 8.29286h1.60967l3.0943-8.29286v8.29286z"/>
  <path fill="none" d="M-64.879845 115.85568h850v850h-850z"/>
</svg>